<mxfile host="Electron" agent="Mozilla/5.0 (Windows NT 10.0; Win64; x64) AppleWebKit/537.36 (KHTML, like Gecko) draw.io/25.0.2 Chrome/128.0.6613.186 Electron/32.2.5 Safari/537.36" version="25.0.2">
  <diagram name="Page-1" id="hzjBHEUrOWUVf1g7Sgyt">
    <mxGraphModel dx="1036" dy="582" grid="1" gridSize="10" guides="1" tooltips="1" connect="1" arrows="1" fold="1" page="1" pageScale="1" pageWidth="850" pageHeight="1100" math="0" shadow="0">
      <root>
        <mxCell id="0" />
        <mxCell id="1" parent="0" />
        <mxCell id="kesuriOU9cO3aOwsWGP3-3" style="edgeStyle=orthogonalEdgeStyle;rounded=0;orthogonalLoop=1;jettySize=auto;html=1;exitX=1;exitY=0.5;exitDx=0;exitDy=0;" edge="1" parent="1" source="kesuriOU9cO3aOwsWGP3-1" target="kesuriOU9cO3aOwsWGP3-2">
          <mxGeometry relative="1" as="geometry" />
        </mxCell>
        <mxCell id="kesuriOU9cO3aOwsWGP3-1" value="star" style="ellipse;whiteSpace=wrap;html=1;" vertex="1" parent="1">
          <mxGeometry y="280" width="120" height="80" as="geometry" />
        </mxCell>
        <mxCell id="kesuriOU9cO3aOwsWGP3-11" style="edgeStyle=orthogonalEdgeStyle;rounded=0;orthogonalLoop=1;jettySize=auto;html=1;entryX=0;entryY=0.5;entryDx=0;entryDy=0;" edge="1" parent="1" source="kesuriOU9cO3aOwsWGP3-2" target="kesuriOU9cO3aOwsWGP3-5">
          <mxGeometry relative="1" as="geometry" />
        </mxCell>
        <mxCell id="kesuriOU9cO3aOwsWGP3-12" style="edgeStyle=orthogonalEdgeStyle;rounded=0;orthogonalLoop=1;jettySize=auto;html=1;" edge="1" parent="1" source="kesuriOU9cO3aOwsWGP3-2" target="kesuriOU9cO3aOwsWGP3-6">
          <mxGeometry relative="1" as="geometry" />
        </mxCell>
        <mxCell id="kesuriOU9cO3aOwsWGP3-13" style="edgeStyle=orthogonalEdgeStyle;rounded=0;orthogonalLoop=1;jettySize=auto;html=1;entryX=0;entryY=1;entryDx=0;entryDy=0;" edge="1" parent="1" source="kesuriOU9cO3aOwsWGP3-2" target="kesuriOU9cO3aOwsWGP3-7">
          <mxGeometry relative="1" as="geometry" />
        </mxCell>
        <mxCell id="kesuriOU9cO3aOwsWGP3-14" style="edgeStyle=orthogonalEdgeStyle;rounded=0;orthogonalLoop=1;jettySize=auto;html=1;entryX=0.25;entryY=0;entryDx=0;entryDy=0;" edge="1" parent="1" source="kesuriOU9cO3aOwsWGP3-2" target="kesuriOU9cO3aOwsWGP3-8">
          <mxGeometry relative="1" as="geometry" />
        </mxCell>
        <mxCell id="kesuriOU9cO3aOwsWGP3-2" value="nhập số a,b,phép tính" style="rounded=1;whiteSpace=wrap;html=1;" vertex="1" parent="1">
          <mxGeometry x="170" y="290" width="120" height="60" as="geometry" />
        </mxCell>
        <mxCell id="kesuriOU9cO3aOwsWGP3-27" style="edgeStyle=orthogonalEdgeStyle;rounded=0;orthogonalLoop=1;jettySize=auto;html=1;" edge="1" parent="1" source="kesuriOU9cO3aOwsWGP3-5">
          <mxGeometry relative="1" as="geometry">
            <mxPoint x="710" y="320" as="targetPoint" />
          </mxGeometry>
        </mxCell>
        <mxCell id="kesuriOU9cO3aOwsWGP3-5" value="phép toàn trừ=a-b" style="shape=parallelogram;perimeter=parallelogramPerimeter;whiteSpace=wrap;html=1;fixedSize=1;" vertex="1" parent="1">
          <mxGeometry x="400" y="240" width="170" height="60" as="geometry" />
        </mxCell>
        <mxCell id="kesuriOU9cO3aOwsWGP3-28" style="edgeStyle=orthogonalEdgeStyle;rounded=0;orthogonalLoop=1;jettySize=auto;html=1;" edge="1" parent="1" source="kesuriOU9cO3aOwsWGP3-6">
          <mxGeometry relative="1" as="geometry">
            <mxPoint x="710" y="330" as="targetPoint" />
          </mxGeometry>
        </mxCell>
        <mxCell id="kesuriOU9cO3aOwsWGP3-6" value="phép toán nhân=a*b&amp;nbsp;" style="shape=parallelogram;perimeter=parallelogramPerimeter;whiteSpace=wrap;html=1;fixedSize=1;" vertex="1" parent="1">
          <mxGeometry x="400" y="340" width="170" height="60" as="geometry" />
        </mxCell>
        <mxCell id="kesuriOU9cO3aOwsWGP3-29" style="edgeStyle=orthogonalEdgeStyle;rounded=0;orthogonalLoop=1;jettySize=auto;html=1;" edge="1" parent="1" source="kesuriOU9cO3aOwsWGP3-7">
          <mxGeometry relative="1" as="geometry">
            <mxPoint x="820" y="370" as="targetPoint" />
          </mxGeometry>
        </mxCell>
        <mxCell id="kesuriOU9cO3aOwsWGP3-7" value="phép toán chia=a/b" style="shape=parallelogram;perimeter=parallelogramPerimeter;whiteSpace=wrap;html=1;fixedSize=1;" vertex="1" parent="1">
          <mxGeometry x="400" y="440" width="170" height="60" as="geometry" />
        </mxCell>
        <mxCell id="kesuriOU9cO3aOwsWGP3-8" value="phép toàn cộng=a+b" style="shape=parallelogram;perimeter=parallelogramPerimeter;whiteSpace=wrap;html=1;fixedSize=1;" vertex="1" parent="1">
          <mxGeometry x="400" y="140" width="170" height="60" as="geometry" />
        </mxCell>
        <mxCell id="kesuriOU9cO3aOwsWGP3-15" value="+" style="text;html=1;align=center;verticalAlign=middle;whiteSpace=wrap;rounded=0;" vertex="1" parent="1">
          <mxGeometry x="350" y="90" width="60" height="30" as="geometry" />
        </mxCell>
        <mxCell id="kesuriOU9cO3aOwsWGP3-16" value="-" style="text;html=1;align=center;verticalAlign=middle;whiteSpace=wrap;rounded=0;" vertex="1" parent="1">
          <mxGeometry x="350" y="240" width="60" height="30" as="geometry" />
        </mxCell>
        <mxCell id="kesuriOU9cO3aOwsWGP3-18" value="*" style="text;html=1;align=center;verticalAlign=middle;whiteSpace=wrap;rounded=0;" vertex="1" parent="1">
          <mxGeometry x="350" y="340" width="60" height="30" as="geometry" />
        </mxCell>
        <mxCell id="kesuriOU9cO3aOwsWGP3-19" value="/" style="text;html=1;align=center;verticalAlign=middle;whiteSpace=wrap;rounded=0;" vertex="1" parent="1">
          <mxGeometry x="340" y="490" width="60" height="30" as="geometry" />
        </mxCell>
        <mxCell id="kesuriOU9cO3aOwsWGP3-31" value="" style="edgeStyle=orthogonalEdgeStyle;rounded=0;orthogonalLoop=1;jettySize=auto;html=1;" edge="1" parent="1" source="kesuriOU9cO3aOwsWGP3-24" target="kesuriOU9cO3aOwsWGP3-30">
          <mxGeometry relative="1" as="geometry" />
        </mxCell>
        <mxCell id="kesuriOU9cO3aOwsWGP3-24" value="kết quả" style="rounded=1;whiteSpace=wrap;html=1;" vertex="1" parent="1">
          <mxGeometry x="720" y="270" width="200" height="90" as="geometry" />
        </mxCell>
        <mxCell id="kesuriOU9cO3aOwsWGP3-26" style="edgeStyle=orthogonalEdgeStyle;rounded=0;orthogonalLoop=1;jettySize=auto;html=1;entryX=0.45;entryY=0;entryDx=0;entryDy=0;entryPerimeter=0;" edge="1" parent="1" source="kesuriOU9cO3aOwsWGP3-8" target="kesuriOU9cO3aOwsWGP3-24">
          <mxGeometry relative="1" as="geometry" />
        </mxCell>
        <mxCell id="kesuriOU9cO3aOwsWGP3-30" value="end&lt;div&gt;&lt;br&gt;&lt;/div&gt;" style="ellipse;whiteSpace=wrap;html=1;" vertex="1" parent="1">
          <mxGeometry x="1000" y="290" width="120" height="80" as="geometry" />
        </mxCell>
      </root>
    </mxGraphModel>
  </diagram>
</mxfile>
